<svg xmlns="http://www.w3.org/2000/svg" viewBox="1312.075 447.5 785.114 514.549">
  <defs>
    <style>
      .cls-1, .cls-2 {
        fill: none;
      }

      .cls-1 {
        stroke: #db5151;
        stroke-width: 3px;
      }
    </style>
  </defs>
  <g id="Group_8" data-name="Group 8" transform="translate(1066 167)">
    <path id="Path_10" data-name="Path 10" class="cls-1" d="M356,282h666V652"/>
    <path id="Path_18" data-name="Path 18" class="cls-1" d="M1014.939,786.92l8.128,8.128,8.128-8.128" transform="translate(-1.068 -143)"/>
    <path id="Path_19" data-name="Path 19" class="cls-1" d="M1014.939,786.92l8.128,8.128,8.128-8.128" transform="translate(-1.068 -135)"/>
    <path id="Path_20" data-name="Path 20" class="cls-1" d="M1014.939,786.92l8.128,8.128,8.128-8.128" transform="translate(-1.068 -127)"/>
    <g id="Group_10" data-name="Group 10">
      <path id="Path_12" data-name="Path 12" class="cls-1" d="M604,874v10.925" transform="translate(418 -89.877)"/>
      <path id="Path_13" data-name="Path 13" class="cls-1" d="M604,874v10.02" transform="translate(418 -107.877)"/>
      <path id="Path_14" data-name="Path 14" class="cls-1" d="M604,874v10.02" transform="translate(418 -125.877)"/>
      <path id="Path_15" data-name="Path 15" class="cls-1" d="M604,874v10.02" transform="translate(418 -143.877)"/>
      <path id="Path_16" data-name="Path 16" class="cls-1" d="M604,874v10.02" transform="translate(418 -161.877)"/>
    </g>
    <g id="Symbol_1_3" data-name="Symbol 1 – 3">
      <g id="Group_11" data-name="Group 11" transform="translate(1060.124 -740) rotate(90)">
        <path id="Path_12-2" data-name="Path 12" class="cls-1" d="M604,874v10.925" transform="translate(418 -89.877)"/>
        <path id="Path_17" data-name="Path 17" class="cls-1" d="M604,874v10.925" transform="translate(418 -70.877)"/>
        <path id="Path_13-2" data-name="Path 13" class="cls-1" d="M604,874v10.02" transform="translate(418 -107.877)"/>
        <path id="Path_14-2" data-name="Path 14" class="cls-1" d="M604,874v10.02" transform="translate(418 -125.877)"/>
        <path id="Path_15-2" data-name="Path 15" class="cls-1" d="M604,874v10.02" transform="translate(418 -143.877)"/>
        <path id="Path_16-2" data-name="Path 16" class="cls-1" d="M604,874v10.02" transform="translate(418 -161.877)"/>
      </g>
    </g>
    <path id="Path_22" data-name="Path 22" class="cls-1" d="M1022,668.049v38.8"/>
    <rect id="Rectangle_51" data-name="Rectangle 51" class="cls-2" width="2" height="10" transform="translate(1021 712)"/>
  </g>
</svg>
