<svg xmlns="http://www.w3.org/2000/svg" viewBox="0 0 54.61 8.4">
    <title>logo</title>
    <style>
        .cls-1{
            fill: #C64F51;
        }
    </style>
    <g id="Livello_2" data-name="Livello 2">
        <g id="Livello_1-2" data-name="Livello 1">
            <path class="cls-1" d="M8.4,8.4H6.48V3.51L4.31,7.08H4.09L1.92,3.51V8.4H0V0H1.92L4.2,3.73,6.48,0H8.4Z"/>
            <path class="cls-1" d="M15.12,6.55V8.4H9.84V0h5.22V1.85h-3.3V3.24h3V5.06h-3V6.55Z"/>
            <path class="cls-1" d="M31.32,6.55V8.4H26V0h5.22V1.85H28V3.24h3V5.06H28V6.55Z"/>
            <path class="cls-1" d="M24.59,8.4H22.68V3.51L20.51,7.08h-.22L18.12,3.51V8.4H16.2V0h1.92L20.4,3.73,22.68,0h1.92Z"/>
            <path class="cls-1" d="M39,0V8.4H37.53L34.29,3.84V8.4H32.37V0h1.44L37,4.56V0Z"/>
            <path class="cls-1" d="M46,1.85H43.89V8.4H42V1.85H39.81V0H46Z"/>
            <path class="cls-1" d="M50.42,0a4.16,4.16,0,0,0-4.2,4.2,4.2,4.2,0,1,0,8.4,0A4.16,4.16,0,0,0,50.42,0Zm2.65,5.45-1.43.82a2.41,2.41,0,0,1-1.22.33,2.3,2.3,0,0,1-2.35-2.4,2.3,2.3,0,0,1,2.35-2.4,2.41,2.41,0,0,1,1.22.33l1.43.82A1.45,1.45,0,0,1,53.07,5.45Z"/>
            <path class="cls-1" d="M53.06,3.68l-1.77-1a.37.37,0,0,0-.56.32V5.42a.37.37,0,0,0,.56.32l1.77-1A.6.6,0,0,0,53.06,3.68Z"/>
        </g>
    </g>
</svg>
