<?xml version="1.0" encoding="utf-8"?>
<!-- Generator: Adobe Illustrator 22.0.0, SVG Export Plug-In . SVG Version: 6.00 Build 0)  -->
<svg version="1.1" id="Livello_1" xmlns="http://www.w3.org/2000/svg" xmlns:xlink="http://www.w3.org/1999/xlink" x="0px" y="0px"
	 viewBox="0 0 400.9 75" style="enable-background:new 0 0 400.9 75;" xml:space="preserve">
<style type="text/css">
	.st0{fill:#EAEAEA;}
	.st1{fill:#DE595A;}
</style>
<polygon class="st0" points="31.8,31.2 15.2,4 1.2,4 1.2,65.2 15.2,65.2 15.2,29.6 31,55.6 32.6,55.6 48.4,29.6 48.4,65.2 
	62.4,65.2 62.4,4 48.4,4 "/>
<polygon class="st0" points="86.9,40.9 108.7,40.9 108.7,27.6 86.9,27.6 86.9,17.4 110.9,17.4 110.9,4 72.9,4 72.9,65.2 111.4,65.2 
	111.4,51.7 86.9,51.7 "/>
<polygon class="st0" points="149.8,31.2 133.2,4 119.2,4 119.2,65.2 133.2,65.2 133.2,29.6 149.1,55.6 150.6,55.6 166.5,29.6 
	166.5,65.2 180.4,65.2 180.4,4 166.5,4 "/>
<polygon class="st0" points="204.9,40.9 226.8,40.9 226.8,27.6 204.9,27.6 204.9,17.4 229,17.4 229,4 190.9,4 190.9,65.2 
	229.4,65.2 229.4,51.7 204.9,51.7 "/>
<polygon class="st0" points="271.4,37.2 247.8,4 237.3,4 237.3,65.2 251.3,65.2 251.3,31.9 274.9,65.2 285.4,65.2 285.4,4 271.4,4 
	"/>
<polygon class="st0" points="337,4 291.5,4 291.5,17.4 307.2,17.4 307.2,65.2 321.2,65.2 321.2,17.4 337,17.4 "/>
<path class="st1" d="M368.8,2.7c-17.6,0-31.8,13.8-31.8,31.8c0,18,14.3,31.8,31.8,31.8c17.6,0,31.8-13.8,31.8-31.8
	C400.6,16.6,386.4,2.7,368.8,2.7z M378.9,36.7L363,45.8c-1.1,0.7-2.5-0.2-2.5-1.5V26c0-1.3,1.4-2.1,2.5-1.5l15.9,9.2
	C380,34.4,380,36,378.9,36.7z"/>
</svg>
