<svg xmlns="http://www.w3.org/2000/svg" viewBox="0 0 54.78 8.73"><defs><style>.cls-1{fill:#fff;}</style></defs><title>Risorsa 1</title><g id="Livello_2" data-name="Livello 2"><g id="Livello_1-2" data-name="Livello 1"><path class="cls-1" d="M8.4,8.56H6.48V3.68L4.31,7.24H4.09L1.92,3.68V8.56H0V.17H1.92L4.2,3.9,6.48.17H8.4Z"/><path class="cls-1" d="M15.12,6.72V8.56H9.84V.17h5.22V2h-3.3V3.41h3V5.23h-3V6.72Z"/><path class="cls-1" d="M31.32,6.72V8.56H26V.17h5.22V2H28V3.41h3V5.23H28V6.72Z"/><path class="cls-1" d="M24.59,8.56H22.68V3.68L20.51,7.24h-.22L18.12,3.68V8.56H16.2V.17h1.92L20.4,3.9,22.68.17h1.92Z"/><path class="cls-1" d="M39,.17v8.4H37.53L34.29,4V8.56H32.37V.17h1.44L37,4.73V.17Z"/><path class="cls-1" d="M46,2H43.89V8.56H42V2H39.81V.17H46Z"/><path class="cls-1" d="M50.42,0a4.33,4.33,0,0,0-4.37,4.37,4.37,4.37,0,1,0,8.73,0A4.33,4.33,0,0,0,50.42,0Zm2.76,5.67-1.49.85a2.51,2.51,0,0,1-1.27.34A2.39,2.39,0,0,1,48,4.37a2.39,2.39,0,0,1,2.45-2.49,2.51,2.51,0,0,1,1.27.34l1.49.85A1.51,1.51,0,0,1,53.17,5.67Z"/><path class="cls-1" d="M53.17,3.83,51.33,2.76a.39.39,0,0,0-.58.33V5.63a.39.39,0,0,0,.58.33L53.17,4.9A.62.62,0,0,0,53.17,3.83Z"/></g></g></svg>